# Blender v2.90.1 OBJ File: ''
# www.blender.org
mtllib fov.mtl
o Cube
v 1.000000 1.000000 -1.000000
v 1.000000 -1.000000 -1.000000
v 1.000000 1.000000 1.000000
v 1.000000 -1.000000 1.000000
v -6.990921 0.785659 -9.114226
v -6.958259 -1.774758 -9.146514
v -6.975990 0.791407 9.053484
v -6.996365 -1.774758 8.960491
vt 0.625000 0.500000
vt 0.875000 0.500000
vt 0.875000 0.750000
vt 0.625000 0.750000
vt 0.375000 0.750000
vt 0.625000 1.000000
vt 0.375000 1.000000
vt 0.375000 0.000000
vt 0.625000 0.000000
vt 0.625000 0.250000
vt 0.375000 0.250000
vt 0.125000 0.500000
vt 0.375000 0.500000
vt 0.125000 0.750000
vn -0.0265 0.9996 -0.0003
vn 0.7085 -0.0175 0.7055
vn -1.0000 -0.0024 -0.0006
vn 0.0967 -0.9953 0.0002
vn 1.0000 0.0000 0.0000
vn 0.7136 0.0101 -0.7005
usemtl Material
s off
f 1/1/1 5/2/1 7/3/1 3/4/1
f 4/5/2 3/4/2 7/6/2 8/7/2
f 8/8/3 7/9/3 5/10/3 6/11/3
f 6/12/4 2/13/4 4/5/4 8/14/4
f 2/13/5 1/1/5 3/4/5 4/5/5
f 6/11/6 5/10/6 1/1/6 2/13/6
